# xmcd
#
# Track frame offsets: 
#        150
#        18113
#        36471
#        51553
#        67315
#        87296
#        108255
#        136386
#        153812
#        176590
#        194580
#        216198
#        235027
#        257138
#        269017
#        287064
#        309227
#        319451
#        332297
#
# Disc length: 4587 seconds
#
# Revision: 0
# Processed by: cddbd v1.5.2PL0 Copyright (c) Steve Scherf et al.
# Submitted via: ExactAudioCopy v0.99pb4
#
DISCID=1d11e913
DTITLE=Various Artist - The Blues In ... Asia
DYEAR=1995
DGENRE=Blues
TTITLE0=Suzie Wong - Cannonball
TTITLE1=Listen My Son - The Unseen Guest
TTITLE2=Sweet Home Chicago - Teh Curtis King Band
TTITLE3=Walking The Dog - Julian Mokhtar
TTITLE4=Guinness World Book on the Blues - O'Donel Levy
TTITLE5=Get on teh Blues Train (Gospel Version) - Universal Blues Band
TTITLE6=Need Your Love So Bad - Matthew "Cadillac" Cooper
TTITLE7=Hotstuff - The Big Easy Band
TTITLE8=Illusi - Rita Lestariani
TTITLE9=Scratch My Back - Al and The Coholics
TTITLE10=If You Be My Baby - John Hanson
TTITLE11=Hard To Handle - Suzuki Band
TTITLE12=Spring Weather (Mandarin Version) - Celluloid
TTITLE13=The Stumble - Teh New Vintage Blues Band
TTITLE14=Yakitori Boogie - Santa Band with Special Guest Dragon
TTITLE15=Mojo Workin' - LRD
TTITLE16=Whammer Jammer - Mojo Freddie
TTITLE17=Tianmi Beijing - Matthew "Cadillac" Cooper
TTITLE18=Been Down So Long (Part 1) - John Chee
EXTD=
EXTT0=
EXTT1=
EXTT2=
EXTT3=
EXTT4=
EXTT5=
EXTT6=
EXTT7=
EXTT8=
EXTT9=
EXTT10=
EXTT11=
EXTT12=
EXTT13=
EXTT14=
EXTT15=
EXTT16=
EXTT17=
EXTT18=
PLAYORDER=
